# Blender v3.5.0 OBJ File: 'testPlayer.blend'
# www.blender.org
mtllib float_Body.mtl
o body_立方体.001
v 0.000000 0.000000 0.000000
v -1.000000 4.000000 1.000000
v -1.000000 4.000000 -1.000000
v 1.000000 4.000000 1.000000
v 1.000000 4.000000 -1.000000
vt 0.948653 0.000000
vt 0.948653 0.511553
vt 0.711490 0.453255
vt 0.237163 0.000000
vt 0.237163 0.511553
vt 0.000000 0.453255
vt 0.474327 0.000000
vt 0.474327 0.511553
vt 0.237163 0.453255
vt 0.711490 0.000000
vt 0.711490 0.511553
vt 0.474327 0.453255
vt 0.244223 0.511553
vt 0.000000 0.755777
vt 0.000000 0.511553
vt 0.244223 0.755777
vn -0.9701 -0.2425 0.0000
vn 0.0000 -0.2425 -0.9701
vn 0.9701 -0.2425 0.0000
vn 0.0000 -0.2425 0.9701
vn 0.0000 1.0000 0.0000
usemtl マテリアル
s off
f 1/1/1 2/2/1 3/3/1
f 1/4/2 3/5/2 5/6/2
f 1/7/3 5/8/3 4/9/3
f 1/10/4 4/11/4 2/12/4
f 3/13/5 4/14/5 5/15/5
f 3/13/5 2/16/5 4/14/5
