# Blender v3.5.0 OBJ File: 'testPlayer.blend'
# www.blender.org
mtllib testPlayer.mtl
o 立方体
v 0.000000 -1.000000 0.000000
v 1.000000 3.000000 -1.000000
v 1.000000 3.000000 1.000000
v -1.000000 3.000000 -1.000000
v -1.000000 3.000000 1.000000
v 1.000000 4.000000 -1.000000
v 1.000000 6.000000 -1.000000
v 1.000000 4.000000 1.000000
v 1.000000 6.000000 1.000000
v -1.000000 4.000000 -1.000000
v -1.000000 6.000000 -1.000000
v -1.000000 4.000000 1.000000
v -1.000000 6.000000 1.000000
vt 0.948653 0.000000
vt 0.948653 0.511553
vt 0.711490 0.453255
vt 0.237163 0.000000
vt 0.237163 0.511553
vt 0.000000 0.453255
vt 0.474327 0.000000
vt 0.474327 0.511553
vt 0.237163 0.453255
vt 0.711490 0.000000
vt 0.711490 0.511553
vt 0.474327 0.453255
vt 0.244223 0.511553
vt 0.000000 0.755777
vt 0.000000 0.511553
vt 0.243413 1.000000
vt 0.486826 0.755777
vt 0.486826 1.000000
vt 0.000000 1.000000
vt 0.243413 0.755777
vt 0.243413 1.000000
vt 0.486827 1.000000
vt 0.730240 0.755777
vt 0.730240 1.000000
vt 0.732671 0.755777
vt 0.976084 0.511553
vt 0.976084 0.755777
vt 0.732670 0.511553
vt 0.488447 0.755777
vt 0.488447 0.511553
vt 0.488447 0.511553
vt 0.244224 0.755777
vt 0.244224 0.511553
vt 0.244223 0.755777
vt 0.243413 0.755777
vt 0.000000 0.755777
vt 0.486827 0.755777
vt 0.732671 0.511553
vt 0.732670 0.755777
vt 0.488447 0.755777
vn 0.9701 -0.2425 0.0000
vn 0.0000 -0.2425 0.9701
vn -0.9701 -0.2425 0.0000
vn 0.0000 -0.2425 -0.9701
vn 0.0000 1.0000 0.0000
vn 1.0000 0.0000 0.0000
vn 0.0000 0.0000 1.0000
vn -1.0000 0.0000 0.0000
vn 0.0000 0.0000 -1.0000
vn 0.0000 -1.0000 0.0000
usemtl マテリアル
s off
f 1/1/1 2/2/1 3/3/1
f 1/4/2 3/5/2 5/6/2
f 1/7/3 5/8/3 4/9/3
f 1/10/4 4/11/4 2/12/4
f 3/13/5 4/14/5 5/15/5
f 7/16/6 8/17/6 6/18/6
f 9/19/7 12/20/7 8/21/7
f 13/22/8 10/23/8 12/24/8
f 11/25/9 6/26/9 10/27/9
f 12/28/10 6/29/10 8/30/10
f 9/31/5 11/32/5 13/33/5
f 3/13/5 2/34/5 4/14/5
f 7/16/6 9/35/6 8/17/6
f 9/19/7 13/36/7 12/20/7
f 13/22/8 11/37/8 10/23/8
f 11/25/9 7/38/9 6/26/9
f 12/28/10 10/39/10 6/29/10
f 9/31/5 7/40/5 11/32/5
