# Blender v3.5.0 OBJ File: 'testEnemy.blend'
# www.blender.org
mtllib enemy_Arm.mtl
o 立方体.001
v 0.595580 -0.400675 -0.600000
v 0.595580 0.401060 -0.600000
v 0.595580 -0.400675 0.600000
v 0.595580 0.401060 0.600000
v -0.604420 -0.400675 -0.600000
v -0.604420 0.401060 -0.600000
v -0.604420 -0.400675 0.600000
v -0.604420 0.401060 0.600000
v -0.004420 1.801977 0.000000
v -0.184420 0.400402 -0.180000
v 0.175580 0.400402 -0.180000
v -0.184420 0.001977 -0.180000
v -0.004420 -1.798023 0.000000
v -0.184420 0.001977 0.180000
v 0.175580 0.001977 0.180000
v 0.175580 0.001977 -0.180000
v -0.184420 0.400402 0.180000
v 0.175580 0.400402 0.180000
v 0.175580 -0.398312 0.180000
v -0.184420 -0.398312 0.180000
v -0.184420 -0.398312 -0.180000
v 0.175580 -0.398312 -0.180000
vt 0.239145 0.932219
vt 0.181986 0.989378
vt 0.181986 0.826067
vt 0.239145 0.883226
vt 0.345297 0.826067
vt 0.288138 0.883226
vt 0.345297 0.989378
vt 0.288138 0.932219
vt 0.933216 0.494238
vt 0.769905 0.494238
vt 0.851560 0.304052
vt 0.160742 0.821574
vt 0.010622 0.757273
vt 0.160742 0.614186
vt 0.939904 0.010622
vt 0.939904 0.065099
vt 0.890910 0.065099
vt 0.890910 0.010622
vt 0.345297 0.804822
vt 0.181986 0.804822
vt 0.263642 0.614186
vt 0.597481 0.365819
vt 0.748660 0.304052
vt 0.748660 0.519946
vt 0.597481 0.605492
vt 0.747600 0.541191
vt 0.747600 0.748579
vt 0.939903 0.140566
vt 0.939903 0.195042
vt 0.890910 0.195042
vt 0.890910 0.140566
vt 0.918909 0.748165
vt 0.768845 0.683736
vt 0.918909 0.541191
vt 0.917217 0.964836
vt 0.768845 0.896599
vt 0.917217 0.769410
vt 0.516606 0.821161
vt 0.366542 0.756731
vt 0.516606 0.614186
vt 0.059616 0.842819
vt 0.059616 0.897295
vt 0.010622 0.897295
vt 0.010622 0.842819
vt 0.129854 0.842819
vt 0.129854 0.896806
vt 0.080860 0.896806
vt 0.080860 0.842819
vt 0.059616 0.951517
vt 0.010622 0.951517
vt 0.939903 0.249265
vt 0.890910 0.249265
vt 0.939904 0.119321
vt 0.890910 0.119321
vt 0.129854 0.950542
vt 0.080860 0.950542
vt 0.747600 0.933134
vt 0.690441 0.875975
vt 0.690441 0.826982
vt 0.747600 0.769823
vt 0.584289 0.933134
vt 0.641448 0.875975
vt 0.584289 0.769823
vt 0.641448 0.826982
vn 0.0016 -1.0000 0.0000
vn 0.0000 -1.0000 0.0016
vn -0.0016 -1.0000 0.0000
vn 0.0000 -1.0000 -0.0016
vn 0.0000 -0.3946 -0.9189
vn 0.0000 0.3937 0.9192
vn 0.0000 0.0000 1.0000
vn -0.9192 0.3937 0.0000
vn 0.9192 0.3937 0.0000
vn 0.0000 0.3937 -0.9192
vn -1.0000 0.0000 0.0000
vn 0.0000 -0.3946 0.9189
vn 0.9189 -0.3946 0.0000
vn -0.9189 -0.3946 0.0000
vn 0.0000 0.0000 -1.0000
vn 1.0000 0.0000 0.0000
vn 0.0056 1.0000 0.0000
vn 0.0000 1.0000 -0.0056
vn -0.0056 1.0000 0.0000
vn 0.0000 1.0000 0.0056
usemtl マテリアル.001
s off
f 11/1/1 2/2/1 4/3/1 18/4/1
f 18/4/2 4/3/2 8/5/2 17/6/2
f 17/6/3 8/5/3 6/7/3 10/8/3
f 10/8/4 6/7/4 2/2/4 11/1/4
f 5/9/5 1/10/5 13/11/5
f 8/12/6 4/13/6 9/14/6
f 19/15/7 15/16/7 14/17/7 20/18/7
f 6/19/8 8/20/8 9/21/8
f 4/22/9 2/23/9 9/24/9
f 2/25/10 6/26/10 9/27/10
f 20/28/11 14/29/11 12/30/11 21/31/11
f 3/32/12 7/33/12 13/34/12
f 1/35/13 3/36/13 13/37/13
f 7/38/14 5/39/14 13/40/14
f 21/41/15 12/42/15 16/43/15 22/44/15
f 22/45/16 16/46/16 15/47/16 19/48/16
f 12/42/15 10/49/15 11/50/15 16/43/15
f 14/29/11 17/51/11 10/52/11 12/30/11
f 15/16/7 18/53/7 17/54/7 14/17/7
f 16/46/16 11/55/16 18/56/16 15/47/16
f 1/57/17 22/58/17 19/59/17 3/60/17
f 5/61/18 21/62/18 22/58/18 1/57/18
f 7/63/19 20/64/19 21/62/19 5/61/19
f 3/60/20 19/59/20 20/64/20 7/63/20
